<?xml version="1.0" standalone="no"?>
<!DOCTYPE svg PUBLIC "-//W3C//DTD SVG 20010904//EN"
 "http://www.w3.org/TR/2001/REC-SVG-20010904/DTD/svg10.dtd">
<svg version="1.0" xmlns="http://www.w3.org/2000/svg"
 width="820.000000pt" height="783.000000pt" viewBox="0 0 820.000000 783.000000"
 preserveAspectRatio="xMidYMid meet">

<g transform="translate(0.000000,783.000000) scale(0.100000,-0.100000)"
fill="#000000" stroke="none">
<path d="M3700 7823 c-295 -16 -481 -51 -805 -149 -1362 -414 -2427 -1525
-2785 -2906 -79 -306 -98 -469 -107 -933 -8 -450 11 -710 72 -955 134 -545
387 -1104 684 -1515 167 -232 414 -495 681 -727 199 -173 513 -399 529 -383
12 13 44 203 126 740 36 237 104 680 151 985 121 795 148 968 199 1305 86 562
146 960 181 1188 32 210 46 277 58 277 9 0 232 -739 570 -1885 439 -1488 746
-2514 833 -2778 14 -43 29 -75 33 -70 14 15 140 447 705 2418 712 2485 673
2350 681 2342 9 -9 78 -441 198 -1242 25 -165 64 -419 86 -565 45 -294 142
-931 196 -1285 66 -440 197 -1279 214 -1378 l12 -67 38 21 c54 30 279 201 465
353 509 414 895 932 1163 1561 110 259 214 611 262 889 39 229 51 363 57 611
11 481 -35 803 -182 1292 -109 362 -281 721 -508 1063 -425 638 -1047 1158
-1752 1465 -412 180 -843 299 -1179 325 -114 9 -732 11 -876 3z m781 -463
c326 -26 615 -95 959 -232 543 -216 1025 -560 1417 -1013 389 -448 670 -1016
798 -1610 61 -284 69 -368 68 -685 -1 -415 -23 -654 -82 -895 -128 -517 -369
-1008 -700 -1425 -79 -100 -377 -408 -385 -399 -8 8 -96 565 -331 2104 -14 88
-70 457 -125 820 -212 1393 -384 2502 -441 2843 -7 40 -16 69 -20 65 -4 -4
-52 -161 -108 -348 -101 -344 -168 -579 -805 -2800 -538 -1879 -605 -2105
-617 -2105 -18 0 -45 82 -217 670 -304 1035 -798 2704 -847 2860 -13 41 -47
154 -75 250 -130 440 -390 1292 -423 1385 l-14 40 -6 -30 c-21 -101 -90 -531
-182 -1140 -25 -165 -61 -403 -81 -530 -50 -332 -84 -558 -169 -1110 -41 -269
-90 -596 -110 -725 -20 -129 -65 -424 -100 -655 -35 -231 -89 -584 -120 -785
-30 -201 -64 -421 -75 -490 -10 -69 -24 -161 -30 -205 -13 -95 -19 -115 -30
-115 -19 0 -134 108 -232 217 -530 596 -837 1276 -929 2058 -5 50 -13 189 -16
310 -15 600 113 1159 393 1716 339 674 927 1255 1624 1604 383 192 837 326
1196 354 160 12 659 13 815 1z"/>
</g>
</svg>
